<?xml version="1.0" encoding="UTF-8" standalone="no"?>
<!DOCTYPE svg PUBLIC "-//W3C//DTD SVG 1.1//EN" "http://www.w3.org/Graphics/SVG/1.1/DTD/svg11.dtd">
<svg width="100%" height="100%" viewBox="0 0 150 150" version="1.1" xmlns="http://www.w3.org/2000/svg" xmlns:xlink="http://www.w3.org/1999/xlink" xml:space="preserve" xmlns:serif="http://www.serif.com/" style="fill-rule:evenodd;clip-rule:evenodd;stroke-linejoin:round;stroke-miterlimit:2;">
    <path d="M58.864,44.851C54.068,41.375 50.946,35.728 50.946,29.358C50.946,18.804 59.514,10.236 70.068,10.236C80.622,10.236 89.19,18.804 89.19,29.358C89.19,35.728 86.069,41.375 81.273,44.851L87.516,44.851C97.145,44.851 104.963,52.669 104.963,62.298L104.963,132.553C104.963,142.182 97.145,150 87.516,150L52.621,150C42.992,150 35.174,142.182 35.174,132.553L35.174,62.298C35.174,52.669 42.992,44.851 52.621,44.851L58.864,44.851Z" style="fill:rgb(235,235,235);"/>
</svg>
